<mxfile host="app.diagrams.net" agent="Mozilla/5.0 (Windows NT 10.0; Win64; x64) AppleWebKit/537.36 (KHTML, like Gecko) Chrome/131.0.0.0 Safari/537.36 Edg/131.0.0.0" version="26.0.2">
  <diagram id="C5RBs43oDa-KdzZeNtuy" name="Page-1">
    <mxGraphModel grid="1" page="1" gridSize="10" guides="1" tooltips="1" connect="1" arrows="1" fold="1" pageScale="1" pageWidth="1169" pageHeight="827" math="0" shadow="0">
      <root>
        <mxCell id="WIyWlLk6GJQsqaUBKTNV-0" />
        <mxCell id="WIyWlLk6GJQsqaUBKTNV-1" parent="WIyWlLk6GJQsqaUBKTNV-0" />
        <mxCell id="WIyWlLk6GJQsqaUBKTNV-3" value="客戶端註冊" style="rounded=1;whiteSpace=wrap;html=1;fontSize=12;glass=0;strokeWidth=1;shadow=0;" vertex="1" parent="WIyWlLk6GJQsqaUBKTNV-1">
          <mxGeometry x="30" y="400" width="120" height="40" as="geometry" />
        </mxCell>
        <mxCell id="WIyWlLk6GJQsqaUBKTNV-7" value="資料上傳提交" style="rounded=1;whiteSpace=wrap;html=1;fontSize=12;glass=0;strokeWidth=1;shadow=0;" vertex="1" parent="WIyWlLk6GJQsqaUBKTNV-1">
          <mxGeometry x="30" y="330" width="120" height="40" as="geometry" />
        </mxCell>
        <mxCell id="WIyWlLk6GJQsqaUBKTNV-10" value="身分核驗" style="rhombus;whiteSpace=wrap;html=1;shadow=0;fontFamily=Helvetica;fontSize=12;align=center;strokeWidth=1;spacing=6;spacingTop=-4;" vertex="1" parent="WIyWlLk6GJQsqaUBKTNV-1">
          <mxGeometry x="40" y="220" width="100" height="80" as="geometry" />
        </mxCell>
        <mxCell id="KWoR5lbW_lbhXnvWQpTL-1" value="" style="endArrow=classic;html=1;rounded=0;exitX=0.5;exitY=0;exitDx=0;exitDy=0;" edge="1" parent="WIyWlLk6GJQsqaUBKTNV-1" source="WIyWlLk6GJQsqaUBKTNV-3" target="WIyWlLk6GJQsqaUBKTNV-7">
          <mxGeometry width="50" height="50" relative="1" as="geometry">
            <mxPoint x="380" y="260" as="sourcePoint" />
            <mxPoint x="240" y="160" as="targetPoint" />
          </mxGeometry>
        </mxCell>
        <mxCell id="KWoR5lbW_lbhXnvWQpTL-2" value="" style="endArrow=classic;html=1;rounded=0;exitX=0.5;exitY=0;exitDx=0;exitDy=0;" edge="1" parent="WIyWlLk6GJQsqaUBKTNV-1" source="WIyWlLk6GJQsqaUBKTNV-7" target="WIyWlLk6GJQsqaUBKTNV-10">
          <mxGeometry width="50" height="50" relative="1" as="geometry">
            <mxPoint x="110" y="320" as="sourcePoint" />
            <mxPoint x="430" y="210" as="targetPoint" />
          </mxGeometry>
        </mxCell>
        <mxCell id="KWoR5lbW_lbhXnvWQpTL-4" value="" style="endArrow=classic;html=1;rounded=0;exitX=1;exitY=0.5;exitDx=0;exitDy=0;entryX=0;entryY=0.5;entryDx=0;entryDy=0;" edge="1" parent="WIyWlLk6GJQsqaUBKTNV-1" source="WIyWlLk6GJQsqaUBKTNV-10" target="KWoR5lbW_lbhXnvWQpTL-5">
          <mxGeometry width="50" height="50" relative="1" as="geometry">
            <mxPoint x="150" y="300" as="sourcePoint" />
            <mxPoint x="210" y="250" as="targetPoint" />
          </mxGeometry>
        </mxCell>
        <mxCell id="KWoR5lbW_lbhXnvWQpTL-23" style="edgeStyle=orthogonalEdgeStyle;rounded=0;orthogonalLoop=1;jettySize=auto;html=1;entryX=0;entryY=0.5;entryDx=0;entryDy=0;" edge="1" parent="WIyWlLk6GJQsqaUBKTNV-1" source="KWoR5lbW_lbhXnvWQpTL-5" target="KWoR5lbW_lbhXnvWQpTL-14">
          <mxGeometry relative="1" as="geometry" />
        </mxCell>
        <mxCell id="KWoR5lbW_lbhXnvWQpTL-5" value="業務申請" style="rounded=1;whiteSpace=wrap;html=1;" vertex="1" parent="WIyWlLk6GJQsqaUBKTNV-1">
          <mxGeometry x="185" y="240" width="100" height="40" as="geometry" />
        </mxCell>
        <mxCell id="KWoR5lbW_lbhXnvWQpTL-6" value="產品推送" style="shape=process;whiteSpace=wrap;html=1;backgroundOutline=1;" vertex="1" parent="WIyWlLk6GJQsqaUBKTNV-1">
          <mxGeometry x="190" y="170" width="90" height="40" as="geometry" />
        </mxCell>
        <mxCell id="KWoR5lbW_lbhXnvWQpTL-7" value="授權協議&lt;div&gt;&lt;br&gt;&lt;/div&gt;" style="shape=process;whiteSpace=wrap;html=1;backgroundOutline=1;" vertex="1" parent="WIyWlLk6GJQsqaUBKTNV-1">
          <mxGeometry x="190" y="310" width="90" height="40" as="geometry" />
        </mxCell>
        <mxCell id="KWoR5lbW_lbhXnvWQpTL-9" value="" style="endArrow=classic;html=1;rounded=0;exitX=0.5;exitY=1;exitDx=0;exitDy=0;entryX=0.5;entryY=0;entryDx=0;entryDy=0;" edge="1" parent="WIyWlLk6GJQsqaUBKTNV-1" source="KWoR5lbW_lbhXnvWQpTL-6" target="KWoR5lbW_lbhXnvWQpTL-5">
          <mxGeometry width="50" height="50" relative="1" as="geometry">
            <mxPoint x="380" y="260" as="sourcePoint" />
            <mxPoint x="430" y="210" as="targetPoint" />
          </mxGeometry>
        </mxCell>
        <mxCell id="KWoR5lbW_lbhXnvWQpTL-10" value="" style="endArrow=classic;html=1;rounded=0;exitX=0.5;exitY=0;exitDx=0;exitDy=0;" edge="1" parent="WIyWlLk6GJQsqaUBKTNV-1" source="KWoR5lbW_lbhXnvWQpTL-7" target="KWoR5lbW_lbhXnvWQpTL-5">
          <mxGeometry width="50" height="50" relative="1" as="geometry">
            <mxPoint x="380" y="260" as="sourcePoint" />
            <mxPoint x="430" y="210" as="targetPoint" />
          </mxGeometry>
        </mxCell>
        <mxCell id="KWoR5lbW_lbhXnvWQpTL-13" value="" style="endArrow=classic;html=1;rounded=0;exitX=1;exitY=0.5;exitDx=0;exitDy=0;" edge="1" parent="WIyWlLk6GJQsqaUBKTNV-1" source="KWoR5lbW_lbhXnvWQpTL-5" target="KWoR5lbW_lbhXnvWQpTL-14">
          <mxGeometry width="50" height="50" relative="1" as="geometry">
            <mxPoint x="380" y="340" as="sourcePoint" />
            <mxPoint x="390" y="260" as="targetPoint" />
          </mxGeometry>
        </mxCell>
        <mxCell id="KWoR5lbW_lbhXnvWQpTL-14" value="匯入策略" style="rhombus;whiteSpace=wrap;html=1;" vertex="1" parent="WIyWlLk6GJQsqaUBKTNV-1">
          <mxGeometry x="330" y="225" width="66" height="70" as="geometry" />
        </mxCell>
        <mxCell id="KWoR5lbW_lbhXnvWQpTL-15" value="拒絕" style="ellipse;whiteSpace=wrap;html=1;" vertex="1" parent="WIyWlLk6GJQsqaUBKTNV-1">
          <mxGeometry x="747" y="100" width="80" height="40" as="geometry" />
        </mxCell>
        <mxCell id="KWoR5lbW_lbhXnvWQpTL-17" value="" style="endArrow=classic;html=1;rounded=0;entryX=0;entryY=0.5;entryDx=0;entryDy=0;exitX=0.5;exitY=0;exitDx=0;exitDy=0;" edge="1" parent="WIyWlLk6GJQsqaUBKTNV-1" source="WIyWlLk6GJQsqaUBKTNV-10" target="KWoR5lbW_lbhXnvWQpTL-15">
          <mxGeometry width="50" height="50" relative="1" as="geometry">
            <mxPoint x="100" y="210" as="sourcePoint" />
            <mxPoint x="430" y="270" as="targetPoint" />
            <Array as="points">
              <mxPoint x="90" y="120" />
            </Array>
          </mxGeometry>
        </mxCell>
        <mxCell id="KWoR5lbW_lbhXnvWQpTL-18" value="" style="endArrow=classic;html=1;rounded=0;exitX=0.5;exitY=0;exitDx=0;exitDy=0;" edge="1" parent="WIyWlLk6GJQsqaUBKTNV-1" source="KWoR5lbW_lbhXnvWQpTL-14">
          <mxGeometry width="50" height="50" relative="1" as="geometry">
            <mxPoint x="407" y="220" as="sourcePoint" />
            <mxPoint x="363" y="120" as="targetPoint" />
          </mxGeometry>
        </mxCell>
        <mxCell id="KWoR5lbW_lbhXnvWQpTL-19" value="分群" style="rounded=1;whiteSpace=wrap;html=1;" vertex="1" parent="WIyWlLk6GJQsqaUBKTNV-1">
          <mxGeometry x="440" y="242.5" width="80" height="35" as="geometry" />
        </mxCell>
        <mxCell id="KWoR5lbW_lbhXnvWQpTL-20" value="" style="endArrow=classic;html=1;rounded=0;exitX=1;exitY=0.5;exitDx=0;exitDy=0;entryX=0;entryY=0.5;entryDx=0;entryDy=0;" edge="1" parent="WIyWlLk6GJQsqaUBKTNV-1" source="KWoR5lbW_lbhXnvWQpTL-14" target="KWoR5lbW_lbhXnvWQpTL-19">
          <mxGeometry width="50" height="50" relative="1" as="geometry">
            <mxPoint x="380" y="320" as="sourcePoint" />
            <mxPoint x="430" y="270" as="targetPoint" />
          </mxGeometry>
        </mxCell>
        <mxCell id="KWoR5lbW_lbhXnvWQpTL-21" value="&lt;font style=&quot;font-size: 9px;&quot;&gt;反詐欺策略&lt;/font&gt;" style="rhombus;whiteSpace=wrap;html=1;" vertex="1" parent="WIyWlLk6GJQsqaUBKTNV-1">
          <mxGeometry x="555" y="230" width="60" height="60" as="geometry" />
        </mxCell>
        <mxCell id="KWoR5lbW_lbhXnvWQpTL-22" value="" style="endArrow=classic;html=1;rounded=0;exitX=1;exitY=0.5;exitDx=0;exitDy=0;entryX=0;entryY=0.5;entryDx=0;entryDy=0;" edge="1" parent="WIyWlLk6GJQsqaUBKTNV-1" source="KWoR5lbW_lbhXnvWQpTL-19" target="KWoR5lbW_lbhXnvWQpTL-21">
          <mxGeometry width="50" height="50" relative="1" as="geometry">
            <mxPoint x="310" y="270" as="sourcePoint" />
            <mxPoint x="360" y="220" as="targetPoint" />
          </mxGeometry>
        </mxCell>
        <mxCell id="KWoR5lbW_lbhXnvWQpTL-24" value="未通過" style="text;html=1;align=center;verticalAlign=middle;resizable=0;points=[];autosize=1;strokeColor=none;fillColor=none;" vertex="1" parent="WIyWlLk6GJQsqaUBKTNV-1">
          <mxGeometry x="336" y="150" width="60" height="30" as="geometry" />
        </mxCell>
        <mxCell id="KWoR5lbW_lbhXnvWQpTL-25" value="&lt;font style=&quot;font-size: 9px;&quot;&gt;申請評分卡&lt;/font&gt;" style="rhombus;whiteSpace=wrap;html=1;" vertex="1" parent="WIyWlLk6GJQsqaUBKTNV-1">
          <mxGeometry x="757" y="230" width="60" height="60" as="geometry" />
        </mxCell>
        <mxCell id="KWoR5lbW_lbhXnvWQpTL-26" value="&lt;font style=&quot;font-size: 8px;&quot;&gt;使用風險策略&lt;/font&gt;" style="rhombus;whiteSpace=wrap;html=1;" vertex="1" parent="WIyWlLk6GJQsqaUBKTNV-1">
          <mxGeometry x="650" y="232.5" width="60" height="55" as="geometry" />
        </mxCell>
        <mxCell id="KWoR5lbW_lbhXnvWQpTL-27" value="" style="endArrow=classic;html=1;rounded=0;exitX=0.5;exitY=0;exitDx=0;exitDy=0;" edge="1" parent="WIyWlLk6GJQsqaUBKTNV-1" source="KWoR5lbW_lbhXnvWQpTL-21">
          <mxGeometry width="50" height="50" relative="1" as="geometry">
            <mxPoint x="530" y="270" as="sourcePoint" />
            <mxPoint x="585" y="120" as="targetPoint" />
            <Array as="points" />
          </mxGeometry>
        </mxCell>
        <mxCell id="KWoR5lbW_lbhXnvWQpTL-28" value="" style="endArrow=classic;html=1;rounded=0;exitX=0.5;exitY=0;exitDx=0;exitDy=0;" edge="1" parent="WIyWlLk6GJQsqaUBKTNV-1" source="KWoR5lbW_lbhXnvWQpTL-26">
          <mxGeometry width="50" height="50" relative="1" as="geometry">
            <mxPoint x="530" y="270" as="sourcePoint" />
            <mxPoint x="680" y="120" as="targetPoint" />
          </mxGeometry>
        </mxCell>
        <mxCell id="KWoR5lbW_lbhXnvWQpTL-29" value="" style="endArrow=classic;html=1;rounded=0;exitX=0.5;exitY=0;exitDx=0;exitDy=0;entryX=0.5;entryY=1;entryDx=0;entryDy=0;" edge="1" parent="WIyWlLk6GJQsqaUBKTNV-1" source="KWoR5lbW_lbhXnvWQpTL-25" target="KWoR5lbW_lbhXnvWQpTL-15">
          <mxGeometry width="50" height="50" relative="1" as="geometry">
            <mxPoint x="530" y="270" as="sourcePoint" />
            <mxPoint x="580" y="220" as="targetPoint" />
          </mxGeometry>
        </mxCell>
        <mxCell id="KWoR5lbW_lbhXnvWQpTL-30" value="未通過" style="text;html=1;align=center;verticalAlign=middle;resizable=0;points=[];autosize=1;strokeColor=none;fillColor=none;" vertex="1" parent="WIyWlLk6GJQsqaUBKTNV-1">
          <mxGeometry x="555" y="150" width="60" height="30" as="geometry" />
        </mxCell>
        <mxCell id="KWoR5lbW_lbhXnvWQpTL-31" value="未通過" style="text;html=1;align=center;verticalAlign=middle;resizable=0;points=[];autosize=1;strokeColor=none;fillColor=none;" vertex="1" parent="WIyWlLk6GJQsqaUBKTNV-1">
          <mxGeometry x="650" y="150" width="60" height="30" as="geometry" />
        </mxCell>
        <mxCell id="KWoR5lbW_lbhXnvWQpTL-32" value="未通過" style="text;html=1;align=center;verticalAlign=middle;resizable=0;points=[];autosize=1;strokeColor=none;fillColor=none;" vertex="1" parent="WIyWlLk6GJQsqaUBKTNV-1">
          <mxGeometry x="757" y="170" width="60" height="30" as="geometry" />
        </mxCell>
        <mxCell id="KWoR5lbW_lbhXnvWQpTL-33" value="" style="endArrow=classic;html=1;rounded=0;exitX=1;exitY=0.5;exitDx=0;exitDy=0;entryX=0;entryY=0.5;entryDx=0;entryDy=0;" edge="1" parent="WIyWlLk6GJQsqaUBKTNV-1" source="KWoR5lbW_lbhXnvWQpTL-21" target="KWoR5lbW_lbhXnvWQpTL-26">
          <mxGeometry width="50" height="50" relative="1" as="geometry">
            <mxPoint x="530" y="270" as="sourcePoint" />
            <mxPoint x="580" y="220" as="targetPoint" />
          </mxGeometry>
        </mxCell>
        <mxCell id="KWoR5lbW_lbhXnvWQpTL-34" value="" style="endArrow=classic;html=1;rounded=0;exitX=1;exitY=0.5;exitDx=0;exitDy=0;entryX=0;entryY=0.5;entryDx=0;entryDy=0;" edge="1" parent="WIyWlLk6GJQsqaUBKTNV-1" source="KWoR5lbW_lbhXnvWQpTL-26" target="KWoR5lbW_lbhXnvWQpTL-25">
          <mxGeometry width="50" height="50" relative="1" as="geometry">
            <mxPoint x="530" y="270" as="sourcePoint" />
            <mxPoint x="580" y="220" as="targetPoint" />
          </mxGeometry>
        </mxCell>
        <mxCell id="KWoR5lbW_lbhXnvWQpTL-35" value="" style="strokeWidth=2;html=1;shape=mxgraph.flowchart.annotation_2;align=left;labelPosition=right;pointerEvents=1;rotation=-90;" vertex="1" parent="WIyWlLk6GJQsqaUBKTNV-1">
          <mxGeometry x="605" y="266" width="55" height="100" as="geometry" />
        </mxCell>
        <mxCell id="KWoR5lbW_lbhXnvWQpTL-36" value="通過" style="text;html=1;align=center;verticalAlign=middle;resizable=0;points=[];autosize=1;strokeColor=none;fillColor=none;" vertex="1" parent="WIyWlLk6GJQsqaUBKTNV-1">
          <mxGeometry x="135" y="230" width="50" height="30" as="geometry" />
        </mxCell>
        <mxCell id="KWoR5lbW_lbhXnvWQpTL-38" value="通過" style="text;html=1;align=center;verticalAlign=middle;resizable=0;points=[];autosize=1;strokeColor=none;fillColor=none;" vertex="1" parent="WIyWlLk6GJQsqaUBKTNV-1">
          <mxGeometry x="390" y="232.5" width="50" height="30" as="geometry" />
        </mxCell>
        <mxCell id="KWoR5lbW_lbhXnvWQpTL-39" value="通過" style="text;html=1;align=center;verticalAlign=middle;resizable=0;points=[];autosize=1;strokeColor=none;fillColor=none;" vertex="1" parent="WIyWlLk6GJQsqaUBKTNV-1">
          <mxGeometry x="605" y="230" width="50" height="30" as="geometry" />
        </mxCell>
        <mxCell id="KWoR5lbW_lbhXnvWQpTL-40" value="通過" style="text;html=1;align=center;verticalAlign=middle;resizable=0;points=[];autosize=1;strokeColor=none;fillColor=none;" vertex="1" parent="WIyWlLk6GJQsqaUBKTNV-1">
          <mxGeometry x="710" y="232.5" width="50" height="30" as="geometry" />
        </mxCell>
        <mxCell id="KWoR5lbW_lbhXnvWQpTL-41" value="&lt;font style=&quot;font-size: 10px;&quot;&gt;線上風控特徵庫&lt;/font&gt;" style="shape=document;whiteSpace=wrap;html=1;boundedLbl=1;" vertex="1" parent="WIyWlLk6GJQsqaUBKTNV-1">
          <mxGeometry x="599" y="340" width="67" height="40" as="geometry" />
        </mxCell>
        <mxCell id="KWoR5lbW_lbhXnvWQpTL-42" value="" style="endArrow=classic;html=1;rounded=0;exitX=0;exitY=0.5;exitDx=0;exitDy=0;entryX=0.5;entryY=1;entryDx=0;entryDy=0;" edge="1" parent="WIyWlLk6GJQsqaUBKTNV-1" source="KWoR5lbW_lbhXnvWQpTL-41" target="KWoR5lbW_lbhXnvWQpTL-14">
          <mxGeometry width="50" height="50" relative="1" as="geometry">
            <mxPoint x="320" y="280" as="sourcePoint" />
            <mxPoint x="370" y="230" as="targetPoint" />
            <Array as="points">
              <mxPoint x="360" y="360" />
            </Array>
          </mxGeometry>
        </mxCell>
        <mxCell id="KWoR5lbW_lbhXnvWQpTL-43" value="" style="endArrow=classic;html=1;rounded=0;exitX=1;exitY=0.5;exitDx=0;exitDy=0;entryX=0.5;entryY=1;entryDx=0;entryDy=0;" edge="1" parent="WIyWlLk6GJQsqaUBKTNV-1" source="KWoR5lbW_lbhXnvWQpTL-41" target="KWoR5lbW_lbhXnvWQpTL-25">
          <mxGeometry width="50" height="50" relative="1" as="geometry">
            <mxPoint x="540" y="280" as="sourcePoint" />
            <mxPoint x="590" y="230" as="targetPoint" />
            <Array as="points">
              <mxPoint x="790" y="360" />
            </Array>
          </mxGeometry>
        </mxCell>
        <mxCell id="KWoR5lbW_lbhXnvWQpTL-44" value="" style="endArrow=classic;html=1;rounded=0;exitX=1;exitY=0.5;exitDx=0;exitDy=0;" edge="1" parent="WIyWlLk6GJQsqaUBKTNV-1" source="KWoR5lbW_lbhXnvWQpTL-25" target="KWoR5lbW_lbhXnvWQpTL-45">
          <mxGeometry width="50" height="50" relative="1" as="geometry">
            <mxPoint x="540" y="280" as="sourcePoint" />
            <mxPoint x="900" y="260" as="targetPoint" />
            <Array as="points">
              <mxPoint x="840" y="260" />
              <mxPoint x="840" y="475" />
            </Array>
          </mxGeometry>
        </mxCell>
        <mxCell id="KWoR5lbW_lbhXnvWQpTL-45" value="綜合決策" style="rounded=1;whiteSpace=wrap;html=1;" vertex="1" parent="WIyWlLk6GJQsqaUBKTNV-1">
          <mxGeometry x="730.5" y="450" width="83" height="50" as="geometry" />
        </mxCell>
        <mxCell id="KWoR5lbW_lbhXnvWQpTL-64" style="edgeStyle=orthogonalEdgeStyle;rounded=0;orthogonalLoop=1;jettySize=auto;html=1;exitX=0.5;exitY=1;exitDx=0;exitDy=0;" edge="1" parent="WIyWlLk6GJQsqaUBKTNV-1" source="KWoR5lbW_lbhXnvWQpTL-46" target="KWoR5lbW_lbhXnvWQpTL-45">
          <mxGeometry relative="1" as="geometry" />
        </mxCell>
        <mxCell id="KWoR5lbW_lbhXnvWQpTL-46" value="難度模型" style="shape=process;whiteSpace=wrap;html=1;backgroundOutline=1;" vertex="1" parent="WIyWlLk6GJQsqaUBKTNV-1">
          <mxGeometry x="735.5" y="396" width="73" height="36" as="geometry" />
        </mxCell>
        <mxCell id="KWoR5lbW_lbhXnvWQpTL-65" style="edgeStyle=orthogonalEdgeStyle;rounded=0;orthogonalLoop=1;jettySize=auto;html=1;exitX=0.5;exitY=0;exitDx=0;exitDy=0;entryX=0.5;entryY=1;entryDx=0;entryDy=0;" edge="1" parent="WIyWlLk6GJQsqaUBKTNV-1" source="KWoR5lbW_lbhXnvWQpTL-47" target="KWoR5lbW_lbhXnvWQpTL-45">
          <mxGeometry relative="1" as="geometry" />
        </mxCell>
        <mxCell id="KWoR5lbW_lbhXnvWQpTL-47" value="風險定價模型" style="shape=process;whiteSpace=wrap;html=1;backgroundOutline=1;" vertex="1" parent="WIyWlLk6GJQsqaUBKTNV-1">
          <mxGeometry x="737.25" y="530" width="72.75" height="40" as="geometry" />
        </mxCell>
        <mxCell id="KWoR5lbW_lbhXnvWQpTL-50" value="電子合約" style="rounded=1;whiteSpace=wrap;html=1;" vertex="1" parent="WIyWlLk6GJQsqaUBKTNV-1">
          <mxGeometry x="605" y="450" width="83" height="50" as="geometry" />
        </mxCell>
        <mxCell id="KWoR5lbW_lbhXnvWQpTL-51" value="用戶動支" style="rounded=1;whiteSpace=wrap;html=1;" vertex="1" parent="WIyWlLk6GJQsqaUBKTNV-1">
          <mxGeometry x="480" y="450" width="83" height="50" as="geometry" />
        </mxCell>
        <mxCell id="KWoR5lbW_lbhXnvWQpTL-52" value="貸中預警" style="rounded=1;whiteSpace=wrap;html=1;" vertex="1" parent="WIyWlLk6GJQsqaUBKTNV-1">
          <mxGeometry x="360" y="450" width="83" height="50" as="geometry" />
        </mxCell>
        <mxCell id="KWoR5lbW_lbhXnvWQpTL-53" value="貸後催收" style="ellipse;whiteSpace=wrap;html=1;" vertex="1" parent="WIyWlLk6GJQsqaUBKTNV-1">
          <mxGeometry x="220" y="450" width="90" height="50" as="geometry" />
        </mxCell>
        <mxCell id="KWoR5lbW_lbhXnvWQpTL-67" style="edgeStyle=orthogonalEdgeStyle;rounded=0;orthogonalLoop=1;jettySize=auto;html=1;exitX=0.5;exitY=1;exitDx=0;exitDy=0;entryX=0.5;entryY=0;entryDx=0;entryDy=0;" edge="1" parent="WIyWlLk6GJQsqaUBKTNV-1" source="KWoR5lbW_lbhXnvWQpTL-54" target="KWoR5lbW_lbhXnvWQpTL-52">
          <mxGeometry relative="1" as="geometry" />
        </mxCell>
        <mxCell id="KWoR5lbW_lbhXnvWQpTL-54" value="三方數據查詢" style="shape=process;whiteSpace=wrap;html=1;backgroundOutline=1;" vertex="1" parent="WIyWlLk6GJQsqaUBKTNV-1">
          <mxGeometry x="363" y="390" width="80" height="40" as="geometry" />
        </mxCell>
        <mxCell id="KWoR5lbW_lbhXnvWQpTL-66" style="edgeStyle=orthogonalEdgeStyle;rounded=0;orthogonalLoop=1;jettySize=auto;html=1;exitX=0.5;exitY=0;exitDx=0;exitDy=0;entryX=0.5;entryY=1;entryDx=0;entryDy=0;" edge="1" parent="WIyWlLk6GJQsqaUBKTNV-1" source="KWoR5lbW_lbhXnvWQpTL-55" target="KWoR5lbW_lbhXnvWQpTL-52">
          <mxGeometry relative="1" as="geometry" />
        </mxCell>
        <mxCell id="KWoR5lbW_lbhXnvWQpTL-55" value="人行徵信查詢" style="shape=process;whiteSpace=wrap;html=1;backgroundOutline=1;" vertex="1" parent="WIyWlLk6GJQsqaUBKTNV-1">
          <mxGeometry x="363" y="530" width="80" height="40" as="geometry" />
        </mxCell>
        <mxCell id="KWoR5lbW_lbhXnvWQpTL-56" value="" style="endArrow=classic;html=1;rounded=0;exitX=0;exitY=0.5;exitDx=0;exitDy=0;entryX=1;entryY=0.5;entryDx=0;entryDy=0;" edge="1" parent="WIyWlLk6GJQsqaUBKTNV-1" source="KWoR5lbW_lbhXnvWQpTL-52" target="KWoR5lbW_lbhXnvWQpTL-53">
          <mxGeometry width="50" height="50" relative="1" as="geometry">
            <mxPoint x="270" y="640" as="sourcePoint" />
            <mxPoint x="320" y="590" as="targetPoint" />
          </mxGeometry>
        </mxCell>
        <mxCell id="KWoR5lbW_lbhXnvWQpTL-58" value="" style="endArrow=classic;html=1;rounded=0;exitX=0;exitY=0.5;exitDx=0;exitDy=0;entryX=1;entryY=0.5;entryDx=0;entryDy=0;" edge="1" parent="WIyWlLk6GJQsqaUBKTNV-1" source="KWoR5lbW_lbhXnvWQpTL-51" target="KWoR5lbW_lbhXnvWQpTL-52">
          <mxGeometry width="50" height="50" relative="1" as="geometry">
            <mxPoint x="360" y="480" as="sourcePoint" />
            <mxPoint x="410" y="430" as="targetPoint" />
          </mxGeometry>
        </mxCell>
        <mxCell id="KWoR5lbW_lbhXnvWQpTL-59" value="" style="endArrow=classic;html=1;rounded=0;exitX=0;exitY=0.5;exitDx=0;exitDy=0;entryX=1;entryY=0.5;entryDx=0;entryDy=0;" edge="1" parent="WIyWlLk6GJQsqaUBKTNV-1" source="KWoR5lbW_lbhXnvWQpTL-50" target="KWoR5lbW_lbhXnvWQpTL-51">
          <mxGeometry width="50" height="50" relative="1" as="geometry">
            <mxPoint x="490" y="485" as="sourcePoint" />
            <mxPoint x="453" y="485" as="targetPoint" />
          </mxGeometry>
        </mxCell>
        <mxCell id="KWoR5lbW_lbhXnvWQpTL-61" value="" style="endArrow=classic;html=1;rounded=0;exitX=0;exitY=0.5;exitDx=0;exitDy=0;entryX=1;entryY=0.5;entryDx=0;entryDy=0;" edge="1" parent="WIyWlLk6GJQsqaUBKTNV-1" source="KWoR5lbW_lbhXnvWQpTL-45" target="KWoR5lbW_lbhXnvWQpTL-50">
          <mxGeometry width="50" height="50" relative="1" as="geometry">
            <mxPoint x="615" y="485" as="sourcePoint" />
            <mxPoint x="573" y="485" as="targetPoint" />
          </mxGeometry>
        </mxCell>
      </root>
    </mxGraphModel>
  </diagram>
</mxfile>
